<svg id="Layer_1" data-name="Layer 1" xmlns="http://www.w3.org/2000/svg" viewBox="0 0 259.99 173.39">
<style>
    path {
        fill: black;
        }
    @media (prefers-color-scheme: dark) {
    path {
        fill: white;
        }
    }
</style>
    <path d="M233.92,438.84c10.35,0,20.71,0,31.06,0,28.58-.13,50.91-22.47,51.13-51.1a86.81,86.81,0,0,1,74.26-85.51c11.28-1.64,22.66-.8,34-.93,4.24,0,8.49-.14,12.72.06,9.79.45,17.61,8.6,17.46,18-.15,9.57-8,17.07-18.14,17.14-10.72.07-21.45,0-32.17,0-30.45,0-52.69,22.14-52.9,52.54-.28,42.71-33.51,79.77-76.23,84.26a242.58,242.58,0,0,1-50.4-.07c-15.09-1.56-27.48-15.57-28.86-30.65-.3-3.27,1.44-3.76,4-3.76C211.23,438.87,222.58,438.85,233.92,438.84Z" transform="translate(-195.8 -301.19)"/><path d="M197.17,382.39c0-14.7-.16-29.41,0-44.11.21-15.42,6.88-27,21.08-33.8a25.82,25.82,0,0,1,11.21-2.57c14.59,0,29.21-.57,43.76.18,22.17,1.15,40.68,10.74,55.95,26.73,1.29,1.35,1.33,2.37.21,3.85a86.16,86.16,0,0,0-15.1,30.24c-.18.69-.27,1.64-1.11,1.79-1.15.2-1.31-1-1.72-1.66-10.75-18.12-26.75-26.81-47.74-26.63-8.73.07-17.46,0-26.18,0-5.19,0-5.27.08-5.27,5.2q0,42.26,0,84.49c0,6.72,0,6.72-6.9,6.72H203c-5.66,0-5.79-.14-5.79-5.95Q197.16,404.64,197.17,382.39Z" transform="translate(-195.8 -301.19)"/><path d="M417.54,474c-10.55.08-23.17.5-35.47-2.93-15.46-4.31-29-11.92-40-23.7-1.56-1.66-2.26-3-.64-5.12,6.69-9,11.9-18.69,14.62-29.63.19-.79.2-2,1.3-2s1.22,1.08,1.65,1.8c10.69,17.9,26.34,26.89,47.33,26.56,10.59-.17,21.2-.22,31.79,0,13.81.32,22,14.47,15.29,26.1-3.4,5.86-8.78,8.71-15.48,8.88C431.8,474.1,425.69,474,417.54,474Z" transform="translate(-195.8 -301.19)"/>
</svg>